<svg id="visual" viewBox="0 0 900 600" width="900" height="600" xmlns="http://www.w3.org/2000/svg" xmlns:xlink="http://www.w3.org/1999/xlink" version="1.1"><rect x="0" y="0" width="900" height="600" fill="#360a16"></rect><path d="M0 419L75 329L150 399L225 377L300 400L375 349L450 381L525 411L600 417L675 407L750 373L825 410L900 402L900 601L825 601L750 601L675 601L600 601L525 601L450 601L375 601L300 601L225 601L150 601L75 601L0 601Z" fill="#4b14f6"></path><path d="M0 424L75 430L150 388L225 455L300 448L375 365L450 404L525 411L600 367L675 370L750 441L825 386L900 434L900 601L825 601L750 601L675 601L600 601L525 601L450 601L375 601L300 601L225 601L150 601L75 601L0 601Z" fill="#5d02c3"></path><path d="M0 484L75 477L150 423L225 474L300 478L375 432L450 407L525 436L600 488L675 481L750 464L825 464L900 476L900 601L825 601L750 601L675 601L600 601L525 601L450 601L375 601L300 601L225 601L150 601L75 601L0 601Z" fill="#5c0194"></path><path d="M0 498L75 520L150 476L225 510L300 481L375 510L450 471L525 521L600 507L675 520L750 520L825 494L900 521L900 601L825 601L750 601L675 601L600 601L525 601L450 601L375 601L300 601L225 601L150 601L75 601L0 601Z" fill="#500a6b"></path><path d="M0 519L75 501L150 497L225 533L300 494L375 536L450 495L525 493L600 536L675 546L750 511L825 505L900 522L900 601L825 601L750 601L675 601L600 601L525 601L450 601L375 601L300 601L225 601L150 601L75 601L0 601Z" fill="#3e1147"></path><path d="M0 537L75 571L150 561L225 527L300 576L375 570L450 548L525 576L600 543L675 574L750 529L825 540L900 528L900 601L825 601L750 601L675 601L600 601L525 601L450 601L375 601L300 601L225 601L150 601L75 601L0 601Z" fill="#281428"></path></svg>