<svg id="visual" viewBox="0 0 900 600" width="900" height="600" xmlns="http://www.w3.org/2000/svg" xmlns:xlink="http://www.w3.org/1999/xlink" version="1.1"><rect x="0" y="0" width="900" height="600" fill="#360a16"></rect><path d="M0 179L75 269L150 199L225 221L300 198L375 249L450 217L525 187L600 181L675 191L750 225L825 188L900 196L900 0L825 0L750 0L675 0L600 0L525 0L450 0L375 0L300 0L225 0L150 0L75 0L0 0Z" fill="#4b14f6"></path><path d="M0 174L75 168L150 210L225 143L300 150L375 233L450 194L525 187L600 231L675 228L750 157L825 212L900 164L900 0L825 0L750 0L675 0L600 0L525 0L450 0L375 0L300 0L225 0L150 0L75 0L0 0Z" fill="#5d02c3"></path><path d="M0 114L75 121L150 175L225 124L300 120L375 166L450 191L525 162L600 110L675 117L750 134L825 134L900 122L900 0L825 0L750 0L675 0L600 0L525 0L450 0L375 0L300 0L225 0L150 0L75 0L0 0Z" fill="#5c0194"></path><path d="M0 100L75 78L150 122L225 88L300 117L375 88L450 127L525 77L600 91L675 78L750 78L825 104L900 77L900 0L825 0L750 0L675 0L600 0L525 0L450 0L375 0L300 0L225 0L150 0L75 0L0 0Z" fill="#500a6b"></path><path d="M0 79L75 97L150 101L225 65L300 104L375 62L450 103L525 105L600 62L675 52L750 87L825 93L900 76L900 0L825 0L750 0L675 0L600 0L525 0L450 0L375 0L300 0L225 0L150 0L75 0L0 0Z" fill="#3e1147"></path><path d="M0 61L75 27L150 37L225 71L300 22L375 28L450 50L525 22L600 55L675 24L750 69L825 58L900 70L900 0L825 0L750 0L675 0L600 0L525 0L450 0L375 0L300 0L225 0L150 0L75 0L0 0Z" fill="#281428"></path></svg>